<!DOCTYPE svg PUBLIC "-//W3C//DTD SVG 1.1//EN" "http://www.w3.org/Graphics/SVG/1.1/DTD/svg11.dtd">
<!-- Uploaded to: SVG Repo, www.svgrepo.com, Transformed by: SVG Repo Mixer Tools -->
<svg width="64px" height="64px" viewBox="0 0 1024 1024" class="icon" version="1.1" xmlns="http://www.w3.org/2000/svg" fill="#000000">
<g id="SVGRepo_bgCarrier" stroke-width="0"/>
<g id="SVGRepo_tracerCarrier" stroke-linecap="round" stroke-linejoin="round"/>
<g id="SVGRepo_iconCarrier">
<path d="M618.95168 271.730688l-51.642368-48.272384H290.7136c-85.419008 0-154.5216 69.18144-154.5216 154.5216v366.332928c0 85.419008 69.18144 154.5216 154.5216 154.5216h366.332928c85.417984 0 154.5216-69.18144 154.5216-154.5216V451.774464l-58.472448-54.654976c-71.079936-0.301056-129.195008-55.498752-134.144-125.3888" fill="#FFF200"/>
<path d="M868.274176 262.05184c0 63.187968-51.406848 114.59584-114.59584 114.59584-63.186944 0-114.59584-51.407872-114.59584-114.59584 0-63.187968 51.408896-114.59584 114.59584-114.59584 63.188992 0 114.59584 51.407872 114.59584 114.59584m40.96 0c0-85.773312-69.781504-155.55584-155.55584-155.55584-85.773312 0-155.55584 69.782528-155.55584 155.55584 0 85.773312 69.782528 155.55584 155.55584 155.55584 85.774336 0 155.55584-69.782528 155.55584-155.55584M657.047552 919.314432H290.7136c-46.752768 0-90.698752-18.19136-123.742208-51.224576-33.055744-33.04448-51.26144-77.000704-51.26144-123.776V377.97888c0-46.751744 18.193408-90.696704 51.226624-123.741184 33.042432-33.055744 77.001728-51.259392 123.777024-51.259392h276.595712v40.96H290.7136C216.80128 243.939328 156.672 304.068608 156.672 377.97888v366.333952c0 73.910272 60.131328 134.040576 134.0416 134.040576h366.333952c73.909248 0 134.040576-60.130304 134.040576-134.0416V451.776512h40.96v292.538368c0 46.751744-18.192384 90.69568-51.224576 123.742208-33.04448 33.05472-77.001728 51.258368-123.776 51.258368" fill="#000000"/>
</g>
</svg>