<!DOCTYPE svg PUBLIC "-//W3C//DTD SVG 1.1//EN" "http://www.w3.org/Graphics/SVG/1.1/DTD/svg11.dtd">

<!-- Uploaded to: SVG Repo, www.svgrepo.com, Transformed by: SVG Repo Mixer Tools -->
<svg width="64px" height="64px" viewBox="0 0 24 24" xmlns="http://www.w3.org/2000/svg" xmlns:xlink="http://www.w3.org/1999/xlink" fill="#000000">

<g id="SVGRepo_bgCarrier" stroke-width="0"/>

<g id="SVGRepo_tracerCarrier" stroke-linecap="round" stroke-linejoin="round"/>

<g id="SVGRepo_iconCarrier"> <defs> <path id="equalizer-a" d="M8,2 C7.44771525,2 7,1.55228475 7,1 C7,0.44771525 7.44771525,0 8,0 C8.55228475,0 9,0.44771525 9,1 C9,1.55228475 8.55228475,2 8,2 Z M1,9 C0.44771525,9 0,8.55228475 0,8 C0,7.44771525 0.44771525,7 1,7 C1.55228475,7 2,7.44771525 2,8 C2,8.55228475 1.55228475,9 1,9 Z M7,16 C6.44771525,16 6,15.5522847 6,15 C6,14.4477153 6.44771525,14 7,14 C7.55228475,14 8,14.4477153 8,15 C8,15.5522847 7.55228475,16 7,16 Z"/> <path id="equalizer-c" d="M2.12406416,10.0076205 C2.56545096,8.27852796 4.13341738,7 6,7 C7.86383943,7 9.42993972,8.27477279 9.87398251,10 L19,10 C19.5522847,10 20,10.4477153 20,11 C20,11.5522847 19.5522847,12 19,12 L9.87398251,12 C9.42993972,13.7252272 7.86383943,15 6,15 C4.13341738,15 2.56545096,13.721472 2.12406416,11.9923795 C2.08341517,11.9974095 2.0420101,12 2,12 L1,12 C0.44771525,12 6.76353751e-17,11.5522847 0,11 C-6.76353751e-17,10.4477153 0.44771525,10 1,10 L2,10 C2.0420101,10 2.08341517,10.0025905 2.12406416,10.0076205 Z M8.12406416,17.0076205 C8.56545096,15.278528 10.1334174,14 12,14 C13.8665826,14 15.434549,15.278528 15.8759358,17.0076205 C15.9165848,17.0025905 15.9579899,17 16,17 L19,17 C19.5522847,17 20,17.4477153 20,18 C20,18.5522847 19.5522847,19 19,19 L16,19 C15.9579899,19 15.9165848,18.9974095 15.8759358,18.9923795 C15.434549,20.721472 13.8665826,22 12,22 C10.1334174,22 8.56545096,20.721472 8.12406416,18.9923795 C8.08341517,18.9974095 8.0420101,19 8,19 L1,19 C0.44771525,19 6.76353751e-17,18.5522847 0,18 C-6.76353751e-17,17.4477153 0.44771525,17 1,17 L8,17 C8.0420101,17 8.08341517,17.0025905 8.12406416,17.0076205 Z M9.12406416,3.00762047 C9.56545096,1.27852796 11.1334174,0 13,0 C14.8638394,0 16.4299397,1.27477279 16.8739825,3 L19,3 C19.5522847,3 20,3.44771525 20,4 C20,4.55228475 19.5522847,5 19,5 L16.8739825,5 C16.4299397,6.72522721 14.8638394,8 13,8 C11.1334174,8 9.56545096,6.72147204 9.12406416,4.99237953 C9.08341517,4.9974095 9.0420101,5 9,5 L1,5 C0.44771525,5 6.76353751e-17,4.55228475 0,4 C-6.76353751e-17,3.44771525 0.44771525,3 1,3 L9,3 C9.0420101,3 9.08341517,3.0025905 9.12406416,3.00762047 Z M13,6 C14.1045695,6 15,5.1045695 15,4 C15,2.8954305 14.1045695,2 13,2 C11.8954305,2 11,2.8954305 11,4 C11,5.1045695 11.8954305,6 13,6 Z M12,20 C13.1045695,20 14,19.1045695 14,18 C14,16.8954305 13.1045695,16 12,16 C10.8954305,16 10,16.8954305 10,18 C10,19.1045695 10.8954305,20 12,20 Z M6,13 C7.1045695,13 8,12.1045695 8,11 C8,9.8954305 7.1045695,9 6,9 C4.8954305,9 4,9.8954305 4,11 C4,12.1045695 4.8954305,13 6,13 Z"/> </defs> <g fill="none" fill-rule="evenodd" transform="translate(2 1)"> <g transform="translate(5 3)"> <mask id="equalizer-b" fill="#ffffff"> <use xlink:href="#equalizer-a"/> </mask> <use fill="#D8D8D8" xlink:href="#equalizer-a"/> <g fill="#FFA0A0" mask="url(#equalizer-b)"> <rect width="24" height="24" transform="translate(-7 -4)"/> </g> </g> <mask id="equalizer-d" fill="#ffffff"> <use xlink:href="#equalizer-c"/> </mask> <use fill="#000000" xlink:href="#equalizer-c"/> <g fill="#7600FF" mask="url(#equalizer-d)"> <rect width="24" height="24" transform="translate(-2 -1)"/> </g> </g> </g>

</svg>