<!DOCTYPE svg PUBLIC "-//W3C//DTD SVG 1.1//EN" "http://www.w3.org/Graphics/SVG/1.1/DTD/svg11.dtd">
<!-- Uploaded to: SVG Repo, www.svgrepo.com, Transformed by: SVG Repo Mixer Tools -->
<svg height="64px" width="64px" version="1.1" id="Layer_1" xmlns="http://www.w3.org/2000/svg" xmlns:xlink="http://www.w3.org/1999/xlink" viewBox="0 0 512 512" xml:space="preserve" fill="#000000">
<g id="SVGRepo_bgCarrier" stroke-width="0"></g>
<g id="SVGRepo_tracerCarrier" stroke-linecap="round" stroke-linejoin="round"></g>
<g id="SVGRepo_iconCarrier"> <path style="fill: #cdcfcf" d="M44.138,512L44.138,512c24.373,0,44.138-19.765,44.138-44.138V282.483H0v185.379 C0,492.235,19.765,512,44.138,512"></path> <path style="fill: #ecf1f1" d="M88.276,467.862v-44.138V211.862V17.655C88.276,7.901,96.177,0,105.931,0h388.414 C504.099,0,512,7.901,512,17.655v450.207C512,492.235,492.235,512,467.862,512H44.138C68.511,512,88.276,492.235,88.276,467.862"></path> <polygon style="fill: #8697cb" points="132.414,220.69 467.862,220.69 467.862,88.276 132.414,88.276 "></polygon> <path style="fill: #cdcfcf" d="M467.862,52.966H132.414c-4.873,0-8.828-3.955-8.828-8.828s3.955-8.828,8.828-8.828h335.448 c4.873,0,8.828,3.955,8.828,8.828S472.735,52.966,467.862,52.966"></path> <polygon style="fill: #f0c419" points="132.414,326.621 185.379,326.621 185.379,273.655 132.414,273.655 "></polygon> <polygon style="fill: #4fba6f" points="132.414,423.724 185.379,423.724 185.379,370.759 132.414,370.759 "></polygon> <g> <path style="fill: #cdcfcf" d="M467.862,282.483H229.517c-4.873,0-8.828-3.955-8.828-8.828c0-4.873,3.955-8.828,8.828-8.828 h238.345c4.873,0,8.828,3.955,8.828,8.828C476.69,278.528,472.735,282.483,467.862,282.483"></path> <path style="fill: #cdcfcf" d="M317.793,326.621h-88.276c-4.873,0-8.828-3.955-8.828-8.828c0-4.873,3.955-8.828,8.828-8.828h88.276 c4.873,0,8.828,3.955,8.828,8.828C326.621,322.666,322.666,326.621,317.793,326.621"></path> <path style="fill: #cdcfcf" d="M467.862,379.586H229.517c-4.873,0-8.828-3.955-8.828-8.828c0-4.873,3.955-8.828,8.828-8.828 h238.345c4.873,0,8.828,3.955,8.828,8.828C476.69,375.631,472.735,379.586,467.862,379.586"></path> <path style="fill: #cdcfcf" d="M317.793,423.724h-88.276c-4.873,0-8.828-3.955-8.828-8.828s3.955-8.828,8.828-8.828h88.276 c4.873,0,8.828,3.955,8.828,8.828S322.666,423.724,317.793,423.724"></path> <path style="fill: #cdcfcf" d="M467.862,476.69H132.414c-4.873,0-8.828-3.955-8.828-8.828s3.955-8.828,8.828-8.828h335.448 c4.873,0,8.828,3.955,8.828,8.828S472.735,476.69,467.862,476.69"></path> </g> </g>
</svg>